<svg id="Layer_1" data-name="Layer 1" xmlns="http://www.w3.org/2000/svg" viewBox="0 0 172.52 211"><defs><style>.cls-1{fill:#a0a0a0;}</style></defs><title>factor_mehdi2</title><path class="cls-1" d="M1100.19,210.27a41.15,41.15,0,0,1-3.1-15.82l-.34-182.14a7.31,7.31,0,0,0-7.3-7.31H980.75a6.2,6.2,0,0,0-6.2,6.2V184.83A31.16,31.16,0,0,0,1005.7,216h97.87A18.42,18.42,0,0,1,1100.19,210.27ZM1052.45,44.62a6.28,6.28,0,0,1,0,8.88l-25.07,25.07a6.28,6.28,0,1,1-8.88-8.88l25.07-25.07a6.28,6.28,0,0,1,8.88,0Zm2.66,29.19a6.66,6.66,0,1,1-6.66-6.65h0a6.65,6.65,0,0,1,6.65,6.64Zm-32-31.18a6.66,6.66,0,1,1-6.65,6.66h0a6.66,6.66,0,0,1,6.64-6.67h0Zm47.93,109a6.27,6.27,0,0,1-4.43,1.82h-62.32a6.27,6.27,0,0,1,0-12.54h62.32a6.27,6.27,0,0,1,4.43,10.7Zm0-24.38a6.27,6.27,0,0,1-4.43,1.84h-62.32a6.27,6.27,0,1,1,0-12.54h62.33a6.27,6.27,0,0,1,4.43,10.7Zm0-24.37a6.27,6.27,0,0,1-4.43,1.82h-62.32a6.27,6.27,0,1,1,0-12.54h62.33a6.27,6.27,0,0,1,4.43,10.7Z" transform="translate(-974.54 -5)"/><path class="cls-1" d="M1122.34,166h-12.18V129.47h13.36C1122.08,129.47,1122.41,154.84,1122.34,166Z" transform="translate(-974.54 -5)"/><path class="cls-1" d="M1147.06,135.65v61.9a18.37,18.37,0,0,1-36.73-.17V178.92h18.76a5.61,5.61,0,0,0,5.61-5.61v-38.7a5.65,5.65,0,0,1,5.65-5.65,6.7,6.7,0,0,1,6.7,6.7Z" transform="translate(-974.54 -5)"/></svg>